<svg width="70" height="70" viewBox="0 0 70 70" fill="none" xmlns="http://www.w3.org/2000/svg">
<path d="M55.5306 58.2916C55.5523 58.2952 55.5741 58.2983 55.5957 58.3024C55.9552 58.3685 56.9175 59.9203 57.1627 60.2693C57.6641 59.9921 58.2243 59.6581 58.7591 59.4588C58.8783 59.4144 58.9651 59.3902 59.0829 59.4445C59.1073 59.5364 59.0956 59.5911 59.0631 59.6806C58.9125 60.0951 58.3133 60.9029 58.0623 61.3428C58.4208 61.7704 59.4215 62.6621 59.5694 63.1264C59.5582 63.1688 59.5655 63.1952 59.5212 63.2148C59.2603 63.3301 58.1354 62.8646 57.8345 62.7529L57.294 62.5638C57.1399 62.9185 56.6503 64.403 56.3851 64.5443C56.3383 64.5692 56.32 64.5446 56.2764 64.5253C56.0584 64.1862 55.9707 62.7333 55.9355 62.2764C55.3558 62.1612 54.3888 62.0945 53.8872 61.9333C53.7811 61.8992 53.6842 61.8672 53.6296 61.7638L53.6603 61.6858C54.0168 61.3618 55.3126 60.9835 55.8144 60.8118C55.6661 60.2248 55.4079 58.8572 55.5306 58.2916Z" fill="#5E433E"/>
<path d="M55.8696 59.0081C56.2114 59.3244 56.6661 60.4499 57.0486 60.6106C57.067 60.6183 57.1367 60.6431 57.1632 60.642C57.2562 60.6379 58.3907 59.9961 58.5827 59.9112C58.2662 60.393 57.9426 60.8716 57.64 61.3623C58.0565 61.8618 58.4991 62.3326 58.9305 62.8185L57.5536 62.3102C57.429 62.27 57.3138 62.2031 57.1978 62.143C56.8285 62.6526 56.6508 63.3194 56.4139 63.8989C56.362 63.2558 56.2785 62.6114 56.2126 61.9692C55.5806 61.8669 54.9414 61.7723 54.3043 61.7102C54.9177 61.4354 55.5824 61.2677 56.1845 60.9728C56.0227 60.3208 55.9239 59.6767 55.8696 59.0081Z" fill="#FCF9F1"/>
<path d="M10.0463 12.416C10.1083 12.4378 10.1641 12.457 10.2115 12.5044C10.5329 12.8252 11.2365 13.9707 11.5328 14.4077C11.836 14.2591 13.3103 13.4331 13.5832 13.547C13.6327 13.5676 13.6319 13.6042 13.6504 13.6502C13.6006 14.0729 12.782 15.0206 12.5294 15.4441L12.5063 15.4833C12.7885 15.8745 13.7266 16.798 13.8421 17.1535C13.8704 17.2401 13.8698 17.254 13.8284 17.3271C13.5309 17.4644 12.6417 17.0581 12.3128 16.9437C12.0719 16.8794 11.8328 16.7966 11.5944 16.7232C11.3745 17.1697 10.9785 18.2808 10.6915 18.5952C10.632 18.6604 10.6014 18.6778 10.5146 18.6794C10.2678 18.4566 10.209 16.7618 10.152 16.3453C9.52927 16.2106 8.81833 16.26 8.22251 16.055C8.12633 16.0219 8.06173 15.9905 8.01538 15.8988C8.15798 15.6459 9.72997 15.1637 10.0757 15.018C10.0969 14.3911 9.87202 13.0695 9.9572 12.5929C9.96923 12.5259 10.0093 12.4712 10.0463 12.416Z" fill="#5E433E"/>
<path d="M10.2866 13.1836C10.5808 13.4518 11.1272 14.3825 11.3432 14.7618C11.959 14.5769 12.5564 14.2565 13.1388 13.9833C12.7894 14.4661 12.3776 14.9624 12.1051 15.4933C12.4952 15.9675 12.9001 16.43 13.2812 16.9115C12.9119 16.7944 12.5413 16.6815 12.1695 16.5729L11.4359 16.3603C11.1579 16.9155 10.9181 17.4872 10.6452 18.0444C10.5921 17.4088 10.5306 16.7691 10.4499 16.1366C9.95488 15.8941 9.34074 15.8744 8.80029 15.8443C9.16096 15.7316 10.0589 15.4513 10.2855 15.1878C10.3456 15.118 10.3789 15.0333 10.3911 14.9425C10.4338 14.6226 10.3087 13.5758 10.2866 13.1836Z" fill="#FCF9F1"/>
<path d="M21.9429 4.72231C22.2908 4.70354 22.5645 4.78536 22.8267 5.02454C23.3417 5.49432 23.4655 6.21429 23.4899 6.87667C23.6524 6.68804 23.8222 6.506 24.0143 6.34709C24.4149 6.01567 24.9211 5.75976 25.4555 5.8217C25.7606 5.85707 26.0284 6.00774 26.2138 6.25356C26.4705 6.59389 26.5108 7.05926 26.4553 7.47031C26.3243 8.43964 25.7106 9.17567 24.9555 9.74784C24.4769 10.0924 23.9783 10.3632 23.4066 10.5178C22.8845 10.6591 22.4056 10.6724 21.9236 10.3864C21.1411 9.92188 20.5946 8.97326 20.3779 8.11056C20.1709 7.28656 20.268 6.36066 20.7164 5.62931C21.006 5.15695 21.3988 4.8499 21.9429 4.72231Z" fill="#5E433E"/>
<path d="M21.8804 5.06564C22.0428 5.0537 22.1937 5.06661 22.3454 5.13055C22.9931 5.40363 23.1687 6.25367 23.1705 6.88788C23.1712 7.13315 23.1073 7.53695 23.2121 7.75502C23.2365 7.80567 23.2586 7.79597 23.3079 7.80813C23.3654 7.79337 23.4012 7.7812 23.4457 7.73943C23.5055 7.68324 23.7512 7.17437 23.856 7.03232C24.1607 6.61911 24.6184 6.22499 25.1445 6.1575C25.3749 6.12792 25.6133 6.17291 25.7982 6.31972C26.0101 6.48803 26.1133 6.75125 26.1398 7.01448C26.2148 7.75878 25.7675 8.47054 25.3126 9.01618C25.2207 9.1107 25.1248 9.20096 25.0249 9.28695C24.925 9.3729 24.8214 9.45427 24.7143 9.53106C24.6071 9.60781 24.4968 9.67968 24.3832 9.74667C24.2697 9.81362 24.1534 9.87539 24.0344 9.93199C23.5417 10.1692 22.8788 10.4104 22.3391 10.2096C21.6871 9.96692 21.1641 9.21408 20.8975 8.60042C20.5694 7.84525 20.51 6.93471 20.8177 6.16249C21.0233 5.64658 21.3651 5.28334 21.8804 5.06564Z" fill="#DCB0A9"/>
<path d="M37.2959 6.30327C38.7132 6.21836 40.1222 6.76831 41.1783 7.70343C41.2442 7.76222 41.3089 7.82237 41.3723 7.8839C41.4357 7.94542 41.4977 8.00824 41.5584 8.07236C41.6192 8.13648 41.6785 8.20186 41.7365 8.26849C41.7945 8.33511 41.8511 8.40293 41.9062 8.47192C41.9613 8.54092 42.015 8.61106 42.0671 8.68233C42.1193 8.75361 42.17 8.82593 42.2191 8.89931C42.2682 8.97273 42.3158 9.04712 42.3618 9.1225C42.4078 9.19792 42.4522 9.27426 42.4949 9.3515C42.5377 9.4288 42.5789 9.50693 42.6184 9.58591C42.6579 9.66493 42.6957 9.74473 42.7318 9.8253C42.7679 9.90588 42.8024 9.9872 42.8351 10.0693C42.8678 10.1513 42.8988 10.234 42.928 10.3174C42.9572 10.4007 42.9847 10.4846 43.0104 10.5691C43.0361 10.6536 43.06 10.7386 43.0821 10.8241C43.1042 10.9096 43.1245 10.9955 43.1431 11.0819C43.1616 11.1683 43.1782 11.255 43.1931 11.3421C43.2928 11.9267 43.3116 12.5253 43.3464 13.1167C43.5214 13.1746 43.6871 13.2174 43.8694 13.2472C44.3525 12.4999 45.1579 11.7112 45.9902 11.3674C46.5457 11.1379 47.1501 11.0651 47.717 11.3102C49.1691 11.9381 49.8905 13.8292 50.4187 15.1946C50.8931 15.3714 51.3944 15.4958 51.8784 15.6462C52.3241 15.7847 52.7602 15.9513 53.2144 16.0607C53.4549 16.4877 53.6612 16.9391 53.8811 17.3771L55.0091 19.6052C55.9843 21.5303 57.032 23.4173 58.0485 25.3204C58.5845 26.3236 59.0686 27.3818 59.643 28.3608C59.8614 28.733 60.3244 29.0263 60.6398 29.3207C61.1429 29.7903 61.5922 30.3158 61.9432 30.9093C62.0682 31.1205 62.2099 31.3737 62.2583 31.6166C62.3772 32.2127 62.1613 33.1543 62.01 33.7382C62.6749 35.2268 63.4353 36.6625 64.1642 38.119L66.4147 42.6949C67.0724 44.0135 67.8273 45.3508 68.3541 46.7281C67.9729 47.0934 63.8203 49.9447 63.4703 50.0621C63.0086 50.2171 61.0221 50.2867 60.4001 50.3368C56.8466 50.6226 53.2825 50.9573 49.7185 51.063C49.6856 51.6109 49.7034 52.164 49.7149 52.7123C49.2482 53.1591 48.2386 53.5668 47.6338 53.8905C47.0802 54.1868 46.5297 54.4982 45.982 54.8054L34.0023 61.5711L28.659 64.6326C28.4303 64.7642 28.2315 65.0301 27.9816 65.1077C27.8819 65.1387 27.8262 65.1055 27.734 65.0641C27.4028 64.9152 27.0873 64.6975 26.768 64.5214C26.1572 64.1847 25.5372 63.8624 24.9212 63.5352C20.4389 61.049 15.938 58.5966 11.4188 56.178C9.4599 55.1686 7.51055 54.1412 5.57071 53.0958C4.88802 52.7265 3.85451 52.2456 3.26985 51.8073C3.217 51.3289 3.24318 50.8186 3.24239 50.3362L3.24192 47.7776L3.23724 39.7683L3.22456 32.727C3.21931 31.5079 3.13834 30.1353 3.24094 28.9394C3.28671 28.8624 3.35216 28.8183 3.42449 28.768C3.72826 28.5563 4.09422 28.4059 4.42668 28.2438L6.16859 27.3997L11.1645 24.9264L21.3612 19.7839C22.3285 19.2985 23.2896 18.813 24.2648 18.343C24.7436 18.1122 25.2398 17.8277 25.7478 17.6704C26.2441 17.8044 26.7408 18.0688 27.2122 18.2758C27.9664 18.6105 28.7264 18.9317 29.4921 19.2391C30.0366 18.5804 30.656 17.9895 31.3071 17.438C30.957 16.8166 30.6506 16.1638 30.3364 15.5236C30.1414 15.1262 29.8885 14.7022 29.7685 14.2773C29.8022 14.162 29.9418 14.0566 30.0332 13.9781C30.5307 13.5505 31.0798 13.1666 31.6016 12.7684C32.1412 12.3567 32.6627 11.923 33.1946 11.5015C33.7343 11.074 34.2886 10.6579 34.8057 10.2031C35.4162 10.3204 36.0191 10.6017 36.6086 10.8024C38.181 11.3375 39.7386 11.9142 41.314 12.4403C41.2133 11.7444 40.9779 11.0969 40.6181 10.4923C39.8373 9.18074 38.7557 8.27471 37.2578 7.90509C36.4826 7.71382 35.6198 7.68634 34.9174 8.11782C34.6985 8.25222 34.5198 8.43932 34.3016 8.57146C34.2051 8.57139 34.1969 8.57207 34.118 8.51752C34.1068 8.4845 34.0962 8.46078 34.0957 8.424C34.0918 8.17374 34.4154 7.76502 34.5743 7.57977C35.2866 6.74948 36.2249 6.3856 37.2959 6.30327Z" fill="#5E433E"/>
<path d="M46.9113 22.4104C47.1496 22.4937 47.3761 22.7424 47.5645 22.9093C47.4286 22.8981 47.2289 22.8452 47.1142 22.7685C46.9709 22.6727 46.9453 22.5746 46.9113 22.4104Z" fill="#FCF9F1"/>
<path d="M32.3583 20.2819L32.6649 20.2645C32.7006 20.3745 32.7587 20.5041 32.749 20.6195C32.653 20.6449 32.6016 20.5994 32.5134 20.5604L31.9122 20.3219C32.0612 20.315 32.2099 20.2967 32.3583 20.2819Z" fill="#DCB0A9"/>
<path d="M13.2494 53.4767C13.2487 53.8358 13.3269 55.0826 13.1585 55.3324L13.1183 55.3166C13.1179 55.1325 13.1237 54.9746 13.1738 54.795C12.9809 54.2053 13.0975 54.0384 13.2494 53.4767Z" fill="#FCF9F1"/>
<path d="M45.5265 21.0194C45.7415 21.1993 46.6468 22.1385 46.7869 22.3474C46.8512 22.4432 46.8786 22.5807 46.9083 22.6915C46.779 22.6485 46.6419 22.6226 46.5093 22.5913C46.1908 22.0905 45.7489 21.5663 45.5265 21.0194Z" fill="#FCF9F1"/>
<path d="M45.0732 20.6163C45.3016 20.6967 46.176 22.174 46.3221 22.4808C46.3277 22.4927 46.333 22.5046 46.3385 22.5164C46.1591 22.4784 45.9877 22.4168 45.8143 22.3583C45.6399 21.9302 45.3044 20.9451 45.0732 20.6163Z" fill="#FCF9F1"/>
<path d="M4.04796 48.8925L4.11912 48.9543C4.24417 49.5486 3.852 50.73 3.64617 51.3234L3.61783 51.3309L3.58463 51.2921C3.55915 50.7948 3.77458 49.2981 4.04796 48.8925Z" fill="#FCF9F1"/>
<path d="M12.9486 35.4008C12.8992 35.1151 12.8194 34.6979 12.902 34.4157C12.9236 34.3419 12.9233 34.3415 12.9947 34.3059L13.0766 34.3473C13.2779 34.65 13.2527 35.4211 13.361 35.8136C13.3642 35.8251 13.3676 35.8366 13.371 35.8481C13.4272 36.2671 13.4113 36.7018 13.4004 37.1238C13.2128 36.5569 13.0569 35.9881 12.9486 35.4008Z" fill="#FCF9F1"/>
<path d="M12.9548 55.7143C12.6381 54.9602 12.4202 53.6503 12.4669 52.8327C12.4743 52.7037 12.4799 52.6135 12.5802 52.5236L12.6667 52.5407C12.9086 52.7919 13.0048 54.3636 13.041 54.7679C13.0542 54.9167 13.0346 55.1428 13.0975 55.2757C13.104 55.2895 13.1113 55.303 13.1182 55.3166L13.1584 55.3324C13.0751 55.4441 13.0179 55.5893 12.9548 55.7143Z" fill="#FCF9F1"/>
<path d="M45.8005 13.6887C46.4503 14.0517 48.7386 18.5826 48.9966 19.4246C48.5959 19.0497 46.0964 14.3947 45.8005 13.6887Z" fill="#FCF9F1"/>
<path d="M32.4583 60.0963C32.5078 60.1159 32.5493 60.1309 32.582 60.1763C32.7498 60.4093 32.395 61.6652 32.3706 62.0277C32.3698 62.0392 32.3693 62.0508 32.3686 62.0625C32.1984 62.2051 32.005 62.3187 31.818 62.4381C31.6449 61.897 31.4143 61.38 31.2809 60.8256C31.2647 60.7094 31.2477 60.5746 31.2953 60.4644C31.3191 60.4091 31.3331 60.4177 31.3841 60.3989C31.4282 60.4162 31.4334 60.4154 31.4774 60.4485C31.6921 60.6098 31.9333 61.1702 31.9793 61.4361C32.0152 61.6425 32.0188 61.8583 32.0465 62.067C32.1753 61.5288 32.1111 60.5466 32.4358 60.1246C32.4431 60.115 32.4508 60.1057 32.4583 60.0963Z" fill="#FCF9F1"/>
<path d="M53.713 22.1216C53.7644 22.1237 53.814 22.1279 53.8643 22.1387C54.0174 22.1717 54.1388 22.2426 54.2178 22.3815C54.3711 22.651 54.3369 23.0006 54.2583 23.2883C54.1542 23.669 53.8982 24.2096 53.5481 24.4093C53.4601 24.3479 53.4434 24.272 53.3993 24.1756C53.1982 23.6425 52.9497 23.3052 52.537 22.9197C52.8706 22.5363 53.2239 22.2712 53.713 22.1216Z" fill="#DCB0A9"/>
<path d="M31.4232 17.8333C31.6035 17.9549 32.3131 19.6125 32.4674 19.9363C32.1859 19.9611 31.2698 20.0015 31.0274 19.9068C30.6288 19.7707 30.2476 19.6003 29.8651 19.4257C30.2771 18.8496 30.8649 18.2709 31.4232 17.8333Z" fill="#DCB0A9"/>
<path d="M53.6602 24.7365C54.2761 24.8179 54.8803 25.0301 55.4749 25.205L57.9595 25.9386C58.3342 26.6555 58.7395 27.3531 59.0964 28.0804C58.6326 27.8733 58.1872 27.5681 57.737 27.3278C56.7436 26.7975 54.983 26.0392 53.8974 25.8652C53.8587 25.4726 53.7772 25.1132 53.6602 24.7365Z" fill="#DCB0A9"/>
<path d="M54.3035 28.1906C54.6464 28.3111 55.0064 28.6698 55.3062 28.8901C57.2171 30.2941 58.9426 31.8448 60.1249 33.9244C59.9789 33.9097 59.8307 33.8971 59.6866 33.869C59.2537 33.7849 58.8563 33.5746 58.4839 33.346C56.523 32.1423 55.5417 30.0306 54.3035 28.1906Z" fill="#FCF9F1"/>
<path d="M51.7314 27.4615C51.8678 27.5348 51.9302 27.6403 52.0021 27.7742C52.3143 28.3557 52.5166 29.0273 52.7767 29.637C53.562 31.4788 54.8184 34.0339 56.5432 35.1517C57.7178 35.913 59.0196 36.227 60.3971 35.9311C60.2757 36.1049 60.1565 36.2484 59.9878 36.3792C59.6868 36.5683 59.3401 36.6953 58.9915 36.7627C58.1457 36.9262 57.3933 36.7538 56.6859 36.2673C54.4951 34.7609 53.2835 31.9498 52.3952 29.5345C52.1467 28.8587 51.8598 28.1725 51.7314 27.4615Z" fill="#FCF9F1"/>
<path d="M51.6977 23.0094C51.7931 23.0077 51.8943 23.0069 51.9875 23.029C52.3846 23.1233 52.6715 23.5313 52.8656 23.8654C53.2295 24.4917 53.7454 25.6126 53.5258 26.3554C53.4028 26.7713 52.9953 26.994 52.6406 27.1872C52.5128 27.2286 52.3785 27.2712 52.2433 27.2774C52.1 27.284 51.971 27.2154 51.8684 27.12C51.1935 26.4925 50.8484 24.6713 50.8006 23.7919C51.0023 23.3969 51.2771 23.1519 51.6977 23.0094Z" fill="#FCF9F1"/>
<path d="M61.8881 47.1826L62.3425 47.1665C61.446 48.1916 60.4213 49.1209 59.4712 50.0973C58.5316 50.1856 57.5855 50.2373 56.6441 50.3065L56.0832 50.3509C57.0795 49.3068 58.1859 48.375 59.1799 47.3295C60.0752 47.2464 60.9893 47.2312 61.8881 47.1826Z" fill="#DCB0A9"/>
<path d="M67.4088 46.9116L67.4689 46.9179C67.4543 46.9435 67.4507 46.9526 67.4275 46.9766C67.0617 47.3527 65.7523 48.1717 65.2383 48.5207C64.7325 48.8642 64.228 49.2575 63.7046 49.571C63.6352 49.6125 63.5632 49.6487 63.4885 49.6794C63.4138 49.7102 63.3372 49.7352 63.2587 49.7546C62.9398 49.8357 62.5788 49.8311 62.2504 49.8582C61.5398 49.9132 60.8298 49.9746 60.1204 50.0425C60.0843 50.0302 60.1005 50.0419 60.0789 49.9989C60.3299 49.698 60.6289 49.4227 60.9037 49.1428C61.5426 48.4921 62.1832 47.8494 62.7455 47.1298L67.4088 46.9116Z" fill="#FCF9F1"/>
<path d="M37.468 6.64515C37.4778 6.64471 37.4876 6.64405 37.4974 6.64383C38.8017 6.61333 40.1653 7.20475 41.1018 8.09978C42.484 9.42089 42.9238 11.1373 42.9634 12.9912C42.5585 12.8202 42.1353 12.6775 41.7155 12.5482C41.6557 12.2765 41.5975 12.0044 41.5411 11.7321C41.519 11.6482 41.4941 11.5653 41.4662 11.4832C40.9705 10.0037 39.8893 8.65171 38.4775 7.95964C37.3694 7.41639 36.1425 7.25821 34.9683 7.65954C35.6095 6.9374 36.538 6.70415 37.468 6.64515Z" fill="#DCB0A9"/>
<path d="M45.217 14.1595C45.374 14.2151 45.5372 14.257 45.6971 14.3036C46.1611 15.0665 46.5518 15.8857 46.9664 16.6764C47.3507 17.3944 47.7485 18.1047 48.1599 18.8074C48.4349 19.282 48.7224 19.7569 49.0325 20.2095C49.2693 20.555 49.5496 20.8848 49.7443 21.2563C49.917 21.586 50.0241 21.9582 50.161 22.3042C50.2873 22.6234 50.4556 22.9445 50.555 23.2722C50.5759 23.3414 50.5739 23.3998 50.5682 23.4709C50.0493 23.3295 48.1786 21.4406 47.7273 20.925C46.1374 19.1086 45.0537 16.5934 45.217 14.1595Z" fill="#FCF9F1"/>
<path d="M44.482 13.0562C44.7655 13.0989 44.9945 13.1743 45.2467 13.3068C44.8834 13.9698 44.834 14.6588 44.8889 15.4029C45.048 17.5587 46.328 20.0097 47.8016 21.5672C48.5264 22.3331 49.3564 22.9783 50.154 23.6643C49.9782 23.6076 49.8 23.5621 49.6214 23.5158C48.9434 23.4068 48.391 23.0407 47.8481 22.641C45.9352 21.2328 43.9056 18.9008 43.5539 16.4898C43.3754 15.2668 43.7531 14.0381 44.482 13.0562Z" fill="#FCF9F1"/>
<path d="M53.1225 27.3412C53.561 27.4365 55.2135 30.2934 55.555 30.8181C55.7688 31.147 55.9982 31.4647 56.243 31.7711C57.3441 33.1588 58.5117 34.0941 60.3021 34.2989C60.3571 34.4591 60.4062 34.6257 60.4429 34.7912C60.4888 34.9977 60.5328 35.2468 60.4022 35.4325C60.2503 35.6483 59.9683 35.6587 59.7298 35.6901C59.2123 35.7462 58.6476 35.6819 58.1514 35.5273C57.3641 35.2819 56.5753 34.8452 55.9727 34.2799C54.8631 33.239 53.9009 31.2939 53.2869 29.9068C52.9596 29.1674 52.6678 28.4087 52.2944 27.6909C52.5781 27.5924 52.8541 27.4758 53.1225 27.3412Z" fill="#FCF9F1"/>
<path d="M58.4918 47.3538C58.5638 47.3442 58.6131 47.3475 58.684 47.3629C57.6697 48.3798 56.5833 49.3462 55.562 50.37C53.265 50.6113 50.8522 50.7042 48.5436 50.7467C48.4693 50.7412 48.3892 50.7549 48.3357 50.7012C48.7929 50.3834 49.2778 50.1077 49.7393 49.7962C50.2983 49.4188 52.5671 47.7516 53.0506 47.6205C53.3673 47.5346 54.2174 47.5498 54.5824 47.5339C55.886 47.484 57.1891 47.4239 58.4918 47.3538Z" fill="#FCF9F1"/>
<path d="M39.5653 20.9814C39.6158 21.0056 39.6341 21.0303 39.6631 21.0804C39.8729 21.442 40.0273 21.8787 40.2013 22.2613C40.5418 23.0059 40.8889 23.7474 41.2426 24.4858C40.307 25.1664 39.3749 25.8519 38.4465 26.5423C37.9745 26.8952 37.2106 27.555 36.7063 27.7874C36.0921 26.6177 35.5462 25.3962 34.9612 24.2096C36.1152 23.5788 37.1727 22.6954 38.2271 21.9092C38.6619 21.585 39.0882 21.2421 39.5653 20.9814Z" fill="#DCB0A9"/>
<path d="M53.918 26.1984C54.2771 26.3041 54.6332 26.4191 54.9863 26.5434C55.3394 26.6677 55.689 26.801 56.0352 26.9435C56.3813 27.086 56.7235 27.2374 57.0618 27.3977C57.4001 27.558 57.734 27.727 58.0635 27.9046C59.3409 28.6016 60.4654 29.4901 61.3513 30.6553C61.5553 30.9236 61.7956 31.2439 61.8843 31.5743C62.1315 32.4957 61.5361 34.4526 61.0775 35.2919C60.9781 35.4598 60.8679 35.6229 60.7624 35.7871C60.7933 35.5814 60.8146 35.3637 60.8082 35.1556C60.738 32.8743 57.4554 30.0161 55.7481 28.7656C55.3318 28.4627 54.9095 28.1684 54.4812 27.8827C54.1409 27.6574 53.754 27.4423 53.4572 27.1624C53.4476 27.1533 53.4383 27.144 53.4289 27.1348C53.69 26.8323 53.8617 26.6078 53.918 26.1984Z" fill="#FCF9F1"/>
<path d="M50.5396 15.5769C50.9226 15.6946 51.3082 15.8065 51.6872 15.9364C52.1142 16.0828 52.5315 16.2529 52.9705 16.3612C53.1563 16.6841 53.3116 17.0334 53.4836 17.3648L55.0758 20.5012C55.5205 21.3613 55.9569 22.2321 56.4188 23.0827C56.8569 23.8894 57.3261 24.6847 57.7299 25.5091L56.5658 25.144C55.7337 24.9248 54.9136 24.6373 54.0759 24.4452C54.3642 24.0049 54.64 23.5784 54.6747 23.0371C54.6973 22.685 54.6336 22.2785 54.3813 22.0129C54.2193 21.8423 54.0006 21.7625 53.7671 21.7688C53.1385 21.7856 52.5893 22.3395 52.1837 22.76C51.9657 21.9801 51.9119 21.1398 51.7688 20.3417C51.4797 18.7294 51.0958 17.1192 50.5396 15.5769Z" fill="#FCF9F1"/>
<path d="M54.3815 34.3822C54.5643 34.5785 54.7147 34.8316 54.8875 35.041C55.6811 36.0032 56.5315 36.7771 57.7444 37.1421C58.8048 39.522 59.846 41.9103 60.868 44.307L61.6265 46.0353C61.7284 46.2624 61.8948 46.5312 61.9547 46.7679C61.9628 46.8 61.9577 46.8173 61.9528 46.8468L59.6476 46.9388L55.6013 37.2614C55.3243 36.5874 55.0099 35.9272 54.7237 35.2565C54.604 34.976 54.4482 34.679 54.3815 34.3822Z" fill="#DCB0A9"/>
<path d="M46.7292 11.528C47.228 11.4922 47.6398 11.6147 48.0375 11.918C49.5833 13.0969 50.3445 15.9226 50.8206 17.7409C50.9664 18.2977 51.1233 18.856 51.2382 19.4202C51.4571 20.4952 51.6042 21.5811 51.7557 22.667C51.3839 22.7413 51.1389 22.8584 50.8583 23.1078C50.7428 22.8385 50.6465 22.558 50.5425 22.2839C49.7896 19.974 47.8516 15.6757 46.3772 13.8341C46.0657 13.445 45.5252 12.8963 45.0033 12.8212C44.9082 12.8076 44.8096 12.829 44.7109 12.8177C44.7251 12.7634 44.7396 12.7189 44.7736 12.6732C45.159 12.1566 46.0911 11.6319 46.7292 11.528Z" fill="#FCF9F1"/>
<path d="M39.9754 20.9613C41.4696 21.4396 42.9723 21.8743 44.4735 22.3287C45.254 22.5649 46.0259 22.831 46.8083 23.0606L49.082 23.7134C49.5478 23.8464 50.0248 23.9552 50.4712 24.1456C50.5345 25.1323 50.8934 26.1012 51.2884 26.997C50.2536 26.7643 49.2337 26.4322 48.2097 26.1537L41.6061 24.3856C41.2887 23.7567 41.0038 23.1111 40.6956 22.4774C40.52 22.1163 40.0464 21.3077 39.9754 20.9613Z" fill="#DCB0A9"/>
<path d="M25.7075 18.0098C26.2886 18.1939 26.8509 18.5186 27.4136 18.7582L31.3453 20.4165C31.9122 20.6519 32.4684 20.9174 33.0458 21.1261C33.1434 21.3128 33.2212 21.5103 33.3039 21.704C31.4884 20.9911 29.6177 20.1317 27.8217 19.3504C27.1102 19.0408 26.4068 18.6731 25.6725 18.4228C24.5483 18.9736 23.4439 19.5612 22.3278 20.1277L14.779 23.9358C12.317 25.1466 9.86892 26.3848 7.43465 27.6503C6.75342 28.0066 6.03827 28.3214 5.37062 28.6992C5.23751 28.7745 5.11628 28.8503 5.04498 28.989C5.07364 29.0968 5.14457 29.1399 5.23635 29.1994C5.5811 29.4229 5.99159 29.5769 6.36205 29.7566L8.56094 30.8332L21.2386 37.1866L25.0734 39.0727C26.0097 39.5306 26.9423 39.9651 27.8284 40.5178C28.6304 40.1606 29.4041 39.6702 30.1751 39.2465C31.2356 38.6637 32.3126 38.111 33.375 37.5313L37.4026 35.4089C38.0581 35.0608 38.7211 34.6219 39.4129 34.3597L39.5735 34.6917C38.3876 35.3567 37.1603 35.9562 35.9591 36.5939L30.9146 39.3102C30.367 39.5979 29.8221 39.8906 29.28 40.1885C28.8404 40.429 28.3592 40.7523 27.8771 40.8864C27.3049 40.5966 26.7186 40.3373 26.141 40.0587L22.0457 38.07C17.7158 35.9511 13.3889 33.802 9.09995 31.6021C8.27786 31.1725 7.44922 30.7561 6.61402 30.3527C5.68195 29.9017 4.74116 29.4705 3.84479 28.9506C5.11904 28.2069 6.50877 27.6 7.84227 26.9676C8.841 26.4941 9.8247 25.9758 10.8138 25.481L25.7075 18.0098Z" fill="#FCF9F1"/>
<path d="M25.6091 34.4813C25.665 34.471 25.7213 34.4854 25.7727 34.5077C26.9975 35.0391 28.1979 35.6503 29.4036 36.2256C30.4043 36.7031 31.4235 37.1466 32.4153 37.6414C30.9095 38.4101 29.3956 39.2239 27.938 40.0791C27.8283 40.1089 27.5892 39.9215 27.4907 39.8653C26.8676 39.5095 26.2217 39.2187 25.583 38.8947C24.8972 38.5467 24.2027 38.2179 23.5145 37.875C22.7316 37.4849 21.955 37.0805 21.1519 36.7332C22.643 35.9932 24.1146 35.2156 25.6091 34.4813Z" fill="#DCB0A9"/>
<path d="M35.0277 10.6471C36.4453 11.0492 37.8279 11.5998 39.2193 12.0832C40.7106 12.6013 42.2243 13.0665 43.7086 13.6011C43.5672 13.9235 43.4379 14.2476 43.3414 14.5866C42.8134 16.4423 43.5464 18.0757 44.4769 19.6547C44.6685 19.9799 44.8911 20.286 45.0733 20.6164C45.0967 21.0003 45.5757 21.8874 45.7078 22.3318C45.167 22.1036 44.2364 21.9025 43.6307 21.7208C42.351 21.3369 41.077 20.907 39.7913 20.5479C39.1774 19.418 38.6724 18.2084 38.1165 17.048C37.2851 15.3123 36.4145 13.5983 35.6046 11.8517C35.4175 11.4479 35.2203 11.0483 35.0277 10.6471Z" fill="#FCF9F1"/>
<path d="M61.8554 34.3092C62.0901 34.5855 62.6822 35.9509 62.878 36.3534L64.9935 40.6364L66.9377 44.5124C67.268 45.1803 67.6302 45.849 67.896 46.5452C66.6548 46.6529 65.3973 46.68 64.1523 46.7298C63.5793 46.7959 62.9848 46.7955 62.4077 46.8243C61.8045 45.7199 61.289 44.3658 60.7805 43.1996C59.8921 41.2034 59.0172 39.2014 58.1556 37.1934C58.8502 37.1981 59.5461 37.0753 60.1528 36.7198C61.0139 36.2151 61.6036 35.2574 61.8554 34.3092Z" fill="#FCF9F1"/>
<path d="M34.684 10.7778C34.8276 10.9143 35.4739 12.4241 35.6172 12.7209L39.4294 20.6136C38.7949 21.0418 38.1859 21.5119 37.5691 21.9654C36.679 22.6226 35.7826 23.2709 34.8798 23.9103L34.8504 23.916C34.6965 23.8228 34.3646 23.0552 34.258 22.8422C33.3396 21.0068 32.4918 19.1333 31.6038 17.2826C31.1304 16.2961 30.5643 15.3286 30.1743 14.3061C30.9331 13.684 31.7321 13.1102 32.4987 12.4975C33.2145 11.9253 33.9203 11.2835 34.684 10.7778Z" fill="#FCF9F1"/>
<path d="M39.6963 35.0303L39.7436 35.0431C39.9318 35.271 39.9927 35.4968 40.0113 35.7881C40.0534 36.4471 39.9914 37.1403 39.9875 37.8027C39.9791 39.4427 39.962 41.0825 39.9361 42.7223L39.8537 53.0095C39.8387 54.6471 39.7793 56.2826 39.7829 57.9209C38.7247 58.405 37.6537 59.1164 36.6186 59.6834C36.5304 59.7338 36.4482 59.8042 36.3458 59.8034C36.2761 59.2786 36.3357 58.3755 36.3353 57.8093L36.3326 53.3377C36.3305 47.8339 36.409 42.3219 36.311 36.8193C36.7046 36.6481 37.0886 36.4115 37.4706 36.2128C38.2153 35.8252 38.9685 35.4488 39.6963 35.0303Z" fill="#DCB0A9"/>
<path d="M40.3039 36.2566C40.481 36.428 42.1229 40.0561 42.346 40.53L44.5444 45.1253C45.488 47.14 46.4009 49.1562 47.4187 51.1357C48.0688 51.0793 48.7318 51.0946 49.3847 51.0701C49.3952 51.5832 49.3697 52.0973 49.3519 52.61L43.56 55.7783C42.4366 56.438 41.3001 57.0745 40.1507 57.6878C40.1107 56.1879 40.1848 54.6836 40.191 53.1834L40.3028 40.3358C40.409 40.749 41.1626 42.8906 41.3649 43.1966L41.3947 43.1817C41.3526 43.0498 41.2864 42.9282 41.2398 42.7977C41.1326 42.4979 41.0564 42.1859 40.9393 41.8897C40.7275 41.3544 40.4719 40.7972 40.3519 40.2324C40.2244 39.6321 40.3224 38.9109 40.3263 38.2975C40.3306 37.6169 40.3091 36.937 40.3039 36.2566Z" fill="#FCF9F1"/>
<path d="M13.7661 34.3937C15.2656 35.1104 16.7797 35.8289 18.2468 36.6098C18.2563 38.696 18.1784 40.7894 18.1553 42.8762L17.9817 59.285C17.8627 59.2766 14.027 57.22 13.5985 56.9749C13.5267 56.3936 13.5562 55.7637 13.5501 55.1763C13.5313 53.3369 13.6279 51.4967 13.6403 49.6575L13.7338 38.4284C13.7503 37.0848 13.7215 35.7362 13.7661 34.3937Z" fill="#DCB0A9"/>
<path d="M41.3705 24.8409C41.3794 24.8441 41.3888 24.8459 41.3971 24.8503C41.4605 24.8837 41.5027 24.958 41.535 25.019C41.7229 25.3731 41.8704 25.7527 42.0517 26.1113C42.8888 27.7674 43.6866 29.4449 44.5136 31.1067L49.8812 41.8871L51.4827 45.0948C51.8747 45.8634 52.3098 46.6325 52.6488 47.4252C51.0874 48.4622 49.5314 49.5071 47.9807 50.5598C47.8634 50.6467 47.7394 50.7258 47.6183 50.8073C46.9295 49.6192 46.3991 48.3196 45.8107 47.0801L42.1982 39.3472C41.7207 38.3149 41.2018 37.2966 40.7111 36.2695L38.3744 31.3099C37.8751 30.2547 37.3444 29.2084 36.8821 28.1366C38.3995 27.0725 39.8196 25.8542 41.3705 24.8409Z" fill="#FCF9F1"/>
<path d="M41.8263 24.8097C42.9865 25.061 44.1318 25.4099 45.2771 25.7228C47.3032 26.2599 49.3228 26.8206 51.3358 27.4052C51.6348 28.6362 52.1085 29.9048 52.609 31.0682C52.8663 31.6663 53.1613 32.2494 53.4062 32.8526L57.5629 42.8614L58.7059 45.5781C58.8859 46 59.1607 46.489 59.2616 46.9306L59.2203 46.9859L59.0709 46.9946C57.0459 47.1419 54.9992 47.2047 52.9693 47.2692C52.6802 46.723 52.416 46.1621 52.1339 45.6119C50.5173 42.4581 48.9831 39.2646 47.3862 36.1019C46.11 33.6082 44.8627 31.1001 43.6442 28.5776C43.0333 27.3285 42.3777 26.086 41.8263 24.8097Z" fill="#FCF9F1"/>
<path d="M25.894 18.9069C26.6975 19.1759 27.6377 19.6843 28.4436 20.0256L31.9252 21.4993C32.4459 21.718 32.9785 21.9118 33.4925 22.1452C33.7893 22.6285 34.032 23.158 34.2885 23.6636C34.8584 24.787 35.3964 25.9211 35.9449 27.0547C36.6256 28.4586 37.2965 29.8671 37.9576 31.2803C38.3907 32.1877 38.8545 33.0874 39.2474 34.0127C38.4775 34.3453 37.7461 34.8316 36.9964 35.2149C35.5728 35.88 34.1985 36.6866 32.8008 37.4082C32.0277 36.9805 31.1777 36.6639 30.3795 36.2831C28.8967 35.5757 27.428 34.8196 25.9149 34.1787C25.9194 29.0902 25.9666 23.9944 25.894 18.9069Z" fill="#DCB0A9"/>
<path d="M36.0002 36.9805L36.0363 36.9966L36.0467 37.1328L36.0863 37.1492L36.047 37.1674C35.9345 39.9924 35.9896 42.8324 35.9898 45.6594V60.0589C34.8354 60.7594 33.6308 61.4366 32.4298 62.0536C32.4758 61.6245 32.7881 60.4636 32.6275 60.16C32.5891 60.0875 32.5749 60.0848 32.5019 60.0599C32.4612 60.0772 32.4529 60.0783 32.4137 60.108C32.1119 60.3368 32.1029 61.2953 32.0761 61.6452C31.971 61.2671 31.8345 60.6872 31.539 60.4028C31.4738 60.3401 31.4353 60.3257 31.3471 60.3264C31.2985 60.358 31.2828 60.38 31.2564 60.4339C31.0598 60.8355 31.6174 62.0357 31.7613 62.4778C30.5679 63.2016 29.3424 63.8722 28.1373 64.5767L28.128 62.0205C28.1266 61.5314 28.0932 61.0164 28.1521 60.5305C28.2 60.1355 28.3474 59.7345 28.4357 59.3447C28.5502 58.8396 28.8647 57.7895 28.5792 57.3367L28.5245 57.3254C28.2869 57.5443 28.2706 58.0406 28.2394 58.3413C28.2309 58.7319 28.2382 59.1207 28.249 59.5112C28.2946 59.0092 28.2343 57.8033 28.5266 57.4324L28.5735 57.4333C28.7688 57.8837 28.3168 59.7386 28.16 60.2099C28.0993 58.4082 28.1473 56.6023 28.1478 54.8001L28.1436 52.9424C28.1427 52.5851 28.119 52.208 28.1637 51.8536C28.2022 51.5496 28.3385 51.2189 28.4253 50.923C28.5781 50.4015 29.0283 48.8429 28.9597 48.3699C28.9437 48.2598 28.9166 48.1669 28.8249 48.098C28.7347 48.102 28.7019 48.1128 28.6423 48.1846C28.358 48.5278 28.2389 49.8581 28.2853 50.3221C28.3537 50.128 28.3498 49.8985 28.3697 49.6945C28.4083 49.2979 28.447 48.4026 28.7579 48.1466C28.8261 48.1694 28.8033 48.1498 28.8427 48.2117C28.9017 48.3043 28.9149 48.411 28.9093 48.519C28.8962 48.7705 28.8082 49.0416 28.7528 49.2884C28.5677 50.1147 28.34 50.9271 28.1444 51.7501C28.1218 50.9239 28.1534 50.0978 28.1605 49.2717L28.1753 44.9132C28.1825 43.6673 28.2109 42.4207 28.1579 41.1755C28.9544 40.8346 29.705 40.3677 30.4722 39.9654C32.325 38.9892 34.1677 37.9942 36.0002 36.9805Z" fill="#FCF9F1"/>
<path d="M25.4861 18.9331C25.5005 18.9512 25.521 18.9657 25.5293 18.9872C25.5764 19.108 25.5314 21.5492 25.5315 21.9267L25.5331 34.1167C25.0433 34.3112 24.5697 34.5884 24.0992 34.8276C22.9808 35.3962 21.8672 35.9962 20.7097 36.4821C20.2913 36.2954 19.8856 36.0645 19.4742 35.8614L16.8384 34.5596L10.8236 31.5291C9.11861 30.662 7.38516 29.8536 5.68079 28.9844C6.26013 28.6507 6.87123 28.3618 7.46555 28.0548L11.653 25.9252L25.4861 18.9331Z" fill="#DCB0A9"/>
<path d="M3.56293 29.2592L10.1253 32.531C11.2226 33.0811 12.3927 33.5942 13.4342 34.2429C13.4338 34.5334 13.4898 35.6723 13.371 35.8482C13.3329 35.4446 13.3119 34.6168 13.1038 34.2885L13.0361 34.2493C12.9397 34.2817 12.8803 34.3285 12.8379 34.4241C12.6604 34.8239 13.0931 36.6463 13.3029 37.0465C13.3271 37.0927 13.3537 37.1359 13.3802 37.1805C13.385 37.1885 13.3893 37.1968 13.3939 37.205C13.3415 38.4711 13.3502 39.744 13.3416 41.0114L13.3045 48.8011L13.2805 51.8631C13.2741 52.3115 13.3039 52.7956 13.2431 53.2389C13.1999 53.555 13.099 53.8653 13.008 54.1701C12.9853 53.8162 13.0197 52.7528 12.7198 52.5268C12.6658 52.4861 12.6255 52.4745 12.5609 52.4611C12.4857 52.4938 12.4571 52.5189 12.4267 52.5979C12.2077 53.1657 12.6108 55.1196 12.8872 55.6727C12.9183 55.7351 12.9122 55.7339 12.976 55.7698L13.2403 55.3359C13.2583 55.802 13.2622 56.2682 13.2521 56.7346C12.536 56.4144 11.8587 56.0072 11.1616 55.6481L5.53322 52.6831C4.89247 52.3442 4.26115 51.9717 3.61331 51.649C3.83373 50.9662 4.38332 49.5118 4.17014 48.8659L4.12834 48.8231C4.03779 48.8321 3.99547 48.8575 3.93494 48.9279C3.79471 49.0908 3.75844 49.4964 3.72011 49.7066C3.67201 49.979 3.61546 50.2527 3.58641 50.5278C3.48807 49.7856 3.58376 48.9263 3.58501 48.1685L3.58744 42.622C3.84237 42.3239 4.55548 40.474 4.52853 40.0923C4.51998 39.9713 4.46607 39.8387 4.39175 39.744C4.34157 39.7293 4.32891 39.7115 4.27947 39.7412C4.08065 39.861 3.95349 40.241 3.86204 40.4533C3.89329 40.2286 3.92918 40.0038 3.94389 39.7773L3.92348 39.8359L3.93258 39.7734C3.84665 39.8836 3.79221 40.6509 3.73393 40.875C3.87226 40.5646 4.0174 40.0464 4.27399 39.8207L4.34411 39.8079C4.40907 39.8632 4.4374 39.9157 4.44788 40.0001C4.50853 40.4883 3.83887 42.1067 3.59275 42.581C3.57313 41.6565 3.59298 40.731 3.5891 39.8062C3.60814 36.2905 3.59942 32.7748 3.56293 29.2592Z" fill="#FCF9F1"/>
<path d="M18.6179 36.8478C19.3369 37.1121 20.021 37.5284 20.7147 37.8562C23.0832 38.9753 25.412 40.2113 27.8147 41.2537C27.8652 42.6182 27.822 44.0002 27.8219 45.3669C27.8238 46.5899 27.8151 47.8128 27.7958 49.0356C27.7908 49.8172 27.8061 50.5997 27.7815 51.3809C27.398 50.576 26.5898 48.7796 26.5092 47.9558C26.4968 47.829 26.4811 47.6032 26.5878 47.5079C26.6597 47.4439 26.6965 47.4557 26.7834 47.4665C27.302 47.8262 27.2698 49.4699 27.5142 50.0346L27.5354 50.0187C27.4958 49.4689 27.3729 48.7659 27.2363 48.2313C27.1757 47.9939 27.0345 47.5055 26.8004 47.3985C26.729 47.3659 26.6475 47.3801 26.5796 47.4151C26.5004 47.456 26.4636 47.5312 26.4448 47.6143C26.2961 48.276 26.9053 49.4823 27.1575 50.1132C27.3409 50.572 27.5003 51.0885 27.777 51.5007L27.7847 55.9008L27.7888 64.6711C24.6016 63.0264 21.5074 61.2044 18.3323 59.5371C18.2694 55.066 18.3809 50.5832 18.4436 46.1118L18.5309 40.6266C18.5496 39.3691 18.5416 38.1029 18.6179 36.8478Z" fill="#FCF9F1"/>
</svg>
